# xmcd CD database file
#
# Track frame offsets:
#	150
#	29870
#	51884
#	86574
#	123596
#	146480
#	168206
#	197512
#	220387
#	245961
#	267294
#	286960
#	309453
#
# Disc length: 4475 seconds
#
# Revision: 1
# Processed by: cddbd v1.5.2PL0 Copyright (c) Steve Scherf et al.
# Submitted via: CDex 1.51
#
DISCID=c911790d
DTITLE=Various Artist - D.Trance 37 - CD 3
DYEAR=2007
DGENRE=Hardtrance
TTITLE0=DJ Mix by Grandmaster Gary D. - Track 01
TTITLE1=DJ Mix by Grandmaster Gary D. - Track 02
TTITLE2=DJ Mix by Grandmaster Gary D. - Track 03
TTITLE3=DJ Mix by Grandmaster Gary D. - Track 04
TTITLE4=DJ Mix by Grandmaster Gary D. - Track 05
TTITLE5=DJ Mix by Grandmaster Gary D. - Track 06
TTITLE6=DJ Mix by Grandmaster Gary D. - Track 07
TTITLE7=DJ Mix by Grandmaster Gary D. - Track 08
TTITLE8=DJ Mix by Grandmaster Gary D. - Track 09
TTITLE9=DJ Mix by Grandmaster Gary D. - Track 10
TTITLE10=DJ Mix by Grandmaster Gary D. - Track 11
TTITLE11=DJ Mix by Grandmaster Gary D. - Track 12
TTITLE12=DJ Mix by Grandmaster Gary D. - Track 13
EXTD=YEAR: 2007
EXTT0=
EXTT1=
EXTT2=
EXTT3=
EXTT4=
EXTT5=
EXTT6=
EXTT7=
EXTT8=
EXTT9=
EXTT10=
EXTT11=
EXTT12=
PLAYORDER=
